PathFileType	4	(X/Y/Z)	./resultDataOpenSim/trcMotMarkerGrf/sub09/qtm-15-03.trc
DataRate	CameraRate	NumFrames	NumMarkers	Units	OrigDataRate	OrigDataStartFrame	OrigNumFrames
250.000000	250.000000	7	24	m	250.000000	433	494
Frame#	Time	L.Toe.Tip			R.Toe.Tip			L.Ankle.Lat			R.Ankle.Lat			L.Ankle.Med			R.Ankle.Med			L.Heel			R.Heel			L.Knee.Lat			R.Knee.Lat			L.Knee.Med			R.Knee.Med			L.Thigh.Upper			R.Thigh.Upper			L.ASIS			R.ASIS			V.Sacral			L.Acromium			R.Acromium			C7			L.Elbow			R.Elbow			L.Wrist.Lat			R.Wrist.Lat
		X1	Y1	Z1	X2	Y2	Z2	X3	Y3	Z3	X4	Y4	Z4	X5	Y5	Z5	X6	Y6	Z6	X7	Y7	Z7	X8	Y8	Z8	X9	Y9	Z9	X10	Y10	Z10	X11	Y11	Z11	X12	Y12	Z12	X13	Y13	Z13	X14	Y14	Z14	X15	Y15	Z15	X16	Y16	Z16	X17	Y17	Z17	X18	Y18	Z18	X19	Y19	Z19	X20	Y20	Z20	X21	Y21	Z21	X22	Y22	Z22	X23	Y23	Z23	X24	Y24	Z24

433	1.728	1.7728016	0.11020383	-0.14165246	1.0390626	0.040038852	-0.012756858	1.6219596	0.079512768	-0.16664466	0.91590809	0.10309069	0.036337114	1.6441935	0.10892703	-0.074525469	0.94091641	0.1424822	-0.052174311	1.5768997	0.017027098	-0.11043137	0.83993011	0.11373463	-0.012991561	1.4857632	0.47691554	-0.20028272	1.1933308	0.47903898	0.094064831	1.4929675	0.47119487	-0.073689493	1.1702542	0.47315898	-0.027709995	1.3092405	0.85369704	-0.23294564	1.2612226	0.87689225	0.13734465	1.3780322	0.94624362	-0.16787097	1.3689686	0.95557296	0.074307353	1.2059391	1.0008183	-0.063760076	1.3371714	1.4049574	-0.22426006	1.3332122	1.4188609	0.10660548	1.2711206	1.4587687	-0.057819926	1.1817416	1.0706636	-0.27545435	1.1915415	1.0844483	0.21419052	1.2932331	0.84084014	-0.34452023	1.3818136	0.88449623	0.24157204
434	1.732	1.7766264	0.1038331	-0.14145994	1.0393541	0.040257032	-0.012673908	1.6248055	0.077754685	-0.16596472	0.91924029	0.10517139	0.037060403	1.6475503	0.10701398	-0.073864288	0.94279043	0.14384158	-0.051529454	1.5778267	0.017310122	-0.10974429	0.84148716	0.11643577	-0.012365888	1.492812	0.4762188	-0.20081832	1.1985825	0.47805522	0.094322403	1.5008358	0.47128192	-0.074307526	1.1756961	0.47192639	-0.027608659	1.3150479	0.85317886	-0.23387137	1.2671155	0.87563385	0.13662162	1.3841181	0.94554482	-0.16854704	1.3750612	0.95430425	0.073751394	1.2119203	0.99964125	-0.06428765	1.3425048	1.4039412	-0.22483995	1.3384124	1.4177708	0.10603538	1.2761923	1.4576881	-0.058439091	1.1875155	1.069486	-0.27618592	1.197214	1.083157	0.21336641	1.2989731	0.83970721	-0.34517164	1.3872409	0.88346875	0.24117688
435	1.736	1.7808245	0.096911132	-0.14121002	1.0396651	0.040491263	-0.01259471	1.627641	0.076489321	-0.16534907	0.92253554	0.10730749	0.03778414	1.651264	0.10547493	-0.07330378	0.94481457	0.14525385	-0.050855355	1.5788389	0.018221744	-0.1089653	0.8431788	0.11927151	-0.011735531	1.4996523	0.47559026	-0.20145123	1.2038563	0.47705464	0.094663549	1.5084589	0.47136367	-0.075044678	1.181251	0.47062727	-0.027679564	1.3208637	0.85270583	-0.23479624	1.2731071	0.87434762	0.13588064	1.3901418	0.94496852	-0.16920168	1.3811975	0.95305213	0.073180431	1.2178632	0.99858822	-0.064761317	1.3478638	1.4029581	-0.22543769	1.3436144	1.4167278	0.10546633	1.2812689	1.4566883	-0.059085787	1.1933181	1.0683257	-0.27694798	1.2028138	1.0819648	0.2125761	1.3047741	0.83858913	-0.34580128	1.3926365	0.88244611	0.24079123
436	1.74	1.7851964	0.090030446	-0.14079568	1.0400023	0.040713086	-0.012457121	1.6305217	0.075661526	-0.16496413	0.92510071	0.10938709	0.03852283	1.6551869	0.10416968	-0.072949833	0.94696893	0.14674911	-0.05012996	1.5799898	0.019510513	-0.10843494	0.84502251	0.12223935	-0.011071376	1.5063174	0.4751413	-0.20211165	1.2092316	0.47603082	0.095043482	1.5158551	0.47147721	-0.075812494	1.1871145	0.46927904	-0.027833621	1.3267372	0.85227223	-0.2357191	1.2792083	0.87302598	0.13513028	1.3961114	0.944514	-0.16984549	1.387376	0.95182066	0.072593232	1.2237576	0.99767961	-0.065195934	1.3532473	1.4020161	-0.22605989	1.3488161	1.4157453	0.10490569	1.2863812	1.4558005	-0.059743716	1.1991588	1.067191	-0.2777265	1.2083061	1.0808602	0.21176385	1.3106493	0.83748046	-0.34641725	1.3979984	0.88143072	0.24040545
437	1.744	1.7893924	0.083697963	-0.14017933	1.0403724	0.040901217	-0.012206341	1.6334524	0.075089416	-0.16489792	0.92665202	0.11138579	0.039326221	1.6590153	0.1029507	-0.072830368	0.94924875	0.14834487	-0.049337291	1.5812453	0.02092103	-0.10848004	0.84703923	0.12534719	-0.01035195	1.5128905	0.47499033	-0.20276004	1.2147841	0.47499385	0.095402289	1.523092	0.47167328	-0.076523215	1.1933521	0.46790759	-0.027885437	1.3327304	0.85189808	-0.23664444	1.2854077	0.87166865	0.13438802	1.402047	0.94417426	-0.17050151	1.3935764	0.95061708	0.07198247	1.2296091	0.99690613	-0.065612949	1.3586516	1.4011268	-0.22670523	1.3540163	1.414836	0.10435142	1.2915494	1.4550444	-0.060402019	1.2050579	1.0660856	-0.27849541	1.2136212	1.07985	0.2108968	1.3165909	0.83638666	-0.34702562	1.4033293	0.88042716	0.24001306
438	1.748	1.7931111	0.078045255	-0.13942091	1.0407805	0.041050654	-0.011810012	1.6363908	0.074580303	-0.16512779	0.92714279	0.11332267	0.040234308	1.6624956	0.10176699	-0.072904458	0.95168461	0.15002447	-0.048475105	1.5825174	0.022320569	-0.10920416	0.84925217	0.12861628	-0.0095697787	1.5195098	0.47522783	-0.20342034	1.2205434	0.47396316	0.095722921	1.530232	0.47204216	-0.077140209	1.1998305	0.46651368	-0.027767319	1.3388756	0.85162432	-0.23756823	1.2916861	0.87028153	0.13366798	1.4079608	0.9439498	-0.17118251	1.3997718	0.94946023	0.071342186	1.2354305	0.99624039	-0.066015314	1.3640702	1.4003044	-0.22736498	1.3592138	1.4140068	0.10380247	1.2967806	1.4544108	-0.061058822	1.2110236	1.0650065	-0.2792436	1.218763	1.0789253	0.20996968	1.322589	0.83532279	-0.34762911	1.4086313	0.87943706	0.23961759
439	1.752	1.7962161	0.072895735	-0.13863005	1.0412369	0.041185765	-0.011326029	1.6392649	0.074039051	-0.16555262	0.92691778	0.11526821	0.04123416	1.6655823	0.10066135	-0.073109974	0.95432093	0.15175968	-0.047551219	1.5837292	0.023669828	-0.11038505	0.85168955	0.13206648	-0.0087347626	1.5263458	0.47589443	-0.20412335	1.2265052	0.47296081	0.096043351	1.5373051	0.47270669	-0.077699743	1.2064032	0.46508374	-0.027561188	1.3451745	0.85149749	-0.23848094	1.2980115	0.86887912	0.13297573	1.4138532	0.94385491	-0.17187729	1.4059392	0.94837707	0.07067224	1.2412279	0.99565312	-0.066386641	1.3694982	1.3995608	-0.22803042	1.3644102	1.41326	0.10326418	1.30207	1.4538728	-0.061716755	1.2170384	1.0639512	-0.27999705	1.2238569	1.0780493	0.20900263	1.3286403	0.83430546	-0.34822264	1.4138911	0.87845921	0.23923049
